<svg width="461" height="350" fill="none" xmlns="http://www.w3.org/2000/svg"><path d="m165.74 70-.2.2a6.26 6.26 0 0 1-4.52 2.2l2.81-4.9c1.8-3.1.1-6.1-2.7-6.1-2.31 0-4.12.9-5.82 3.9l-1.51 2.6-1.2 2.1-.2.2c-2.21 2.5-4.32 4.5-5.62 4.5-.7 0-1-.5-.3-1.6l6.42-11.2h2.4l.9-1.4h-2.5l2.8-4.9h-3l-2.81 4.9h-2.7l-.91 1.4h2.7l-6.01 10.4c-1.3 2.2-.4 4.3 2 4.3 1.71 0 3.72-1.3 5.52-3.1 0 3.8 5.32 4.6 8.53.5h.7c1.8 0 4.62-1.1 6.12-2.9 0-.5-.5-.9-.9-1.1Zm-6.42.2h-.1a1.8 1.8 0 0 0-1.5 2.8v.1c-1.41 2.4-4.82 2-3.12-1.2l2.31-3.9 1.4-2.4c2.11-3.6 5.02-2.2 3.22.9l-2.21 3.7ZM207.38 70l-.2.2c-2.21 2.5-4.92 4.5-7.03 4.5-1.8 0-2.9-1.2-1.6-3.6l.3-.5c1.9.8 5.62.4 7.82-3.5l.4-.7c1.6-2.8.1-4.8-2.4-4.8-2.41 0-4.32 1.3-5.62 3.5l-2.91 5-.2.2c-2.21 2.5-4.32 4.5-5.62 4.5-.7 0-1-.5-.3-1.6l4.31-7.6c1.3-2.3.1-3.9-1.6-3.9-1.3 0-2.71.7-4.22 2.3l4.82-8.3h-3.01L181.99 70l-.2.2c-2.2 2.5-4.31 4.5-5.62 4.5-.7 0-1-.5-.3-1.6l6.42-11.2h2.41l.9-1.4h-2.5l2.8-4.9h-3l-2.81 4.9h-2.71l-.9 1.4h2.7l-6.02 10.4c-1.3 2.2-.4 4.3 2.01 4.3 1.2 0 2.5-.6 3.81-1.6l-.8 1.3h3.01l4.51-7.9c4.62-5.8 6.63-5 5.42-2.8l-3.91 6.8c-1.3 2.2-.4 4.3 2 4.3 1.81 0 3.82-1.4 5.62-3.2.1 1.9 1.71 3.2 4.12 3.2 3.4 0 6.82-2.6 9.23-5.5.1-.6-.4-1-.8-1.2Zm-5.72-4.2c1.7-3 4.81-2.5 3 .6l-.4.7c-1.4 2.4-3.4 2.4-4.51 2l1.9-3.3ZM316.83 70l-.2.2a22 22 0 0 1-3.61 3.3c1-2.9.7-7.2 2.6-11.1l-2.2-1.2c-1.2 1.7-3.91 5.6-6.72 8.8l-.2.2c-2.21 2.5-4.32 4.5-5.62 4.5-.7 0-1-.5-.3-1.6L307 61.9h-3.01l-5.32 9.3c-2.3 2.1-4.01 3.2-4.61 3-.7-.3 0-1.4.4-2.1l5.82-10.2h-3.01l-4.72 8.1-.2.2a6.26 6.26 0 0 1-4.51 2.2l2.8-4.9c1.81-3.1.1-6.1-2.7-6.1-2.31 0-4.12.9-5.82 3.9l-1.5 2.6-1.21 2.1-.2.2c-2.2 2.5-4.92 4.5-7.02 4.5-1.81 0-2.91-1.2-1.61-3.6l.3-.5c1.9.8 5.62.4 7.83-3.5l.4-.7c1.6-2.8.1-4.8-2.41-4.8-2.4 0-4.31 1.3-5.62 3.5l-2.9 5-.2.2c-2.52 2.9-4.62 4.7-7.03 5.7l6.72-11.5h-1.8c0-1.2-1.3-2.9-3.12-2.9-1.6 0-3.9 1.3-5.11 3.5l-2.91 5-.2.2c-2.2 2.5-4.32 4.5-5.62 4.5-.7 0-1-.5-.3-1.6l3-5.2c1.01-1.8.51-2.9-.4-4.1l-1.7-2c-.4-.5-.4-1.2.2-1.7l-1.6-1.7c-1.7 1.5-1.8 3.2-.8 4.6l.3.3a75.1 75.1 0 0 1-5.12 6.7l-.2.2a6.26 6.26 0 0 1-4.52 2.2l2.81-4.9c1.8-3.1.1-6.1-2.7-6.1-2.31 0-4.12.9-5.82 3.9l-1.51 2.6-1.2 2.1-.2.2c-2.51 2.9-4.62 4.7-7.03 5.7l6.72-11.5h-1.8c0-1.2-1.3-2.9-3.11-2.9-1.6 0-3.91 1.3-5.12 3.5l-4.21 7.3c-1.3 2.2-.4 4.3 2 4.3.8 0 1.81-.4 2.91-1l-.8 1.4c-4.01 1.2-6.62 2.9-6.62 5.1 0 2.9 4.41 3.5 6.62-.2l2.3-3.9c2.42-.7 4.72-2.2 7.23-4.5 0 3.8 5.32 4.6 8.53.5h.7c1.8 0 4.62-1.1 6.12-2.9 1.4-1.7 2.61-3.2 5.02-6.4l.4.5c.4.5.5 1.1.2 1.7L246 72.5c-1.3 2.2-.4 4.3 2 4.3 1.51 0 3.22-1 4.82-2.4 0 1.4.9 2.4 2.61 2.4.8 0 1.8-.4 2.91-1l-.7 1.2c-4.01 1.2-6.62 2.9-6.62 5.1 0 2.9 4.41 3.5 6.62-.2l2.3-3.9c2.41-.8 4.82-2.2 7.33-4.6.1 1.9 1.6 3.2 4.11 3.2 2.41 0 4.92-1.4 6.93-3.2-.1 3.9 5.31 4.7 8.52.6h.7c.9 0 2.21-.3 3.32-.9-.8 2.1-.1 3.5 1.6 3.5 1.6 0 3.51-1.5 4.92-2.9-.3 1.6.7 2.9 2.6 2.9 2.51 0 5.32-2.6 7.83-5.5 1.7-2 3.21-4.1 4.31-5.5-1.2 3.1-.5 8.7-3.4 8.7-1 0-1.41-1.1-1.41-1.1l-1.9 1s.5 2.4 3.3 2.4c.3 0 .5 0 .8-.1h.1c3.12-.4 6.13-2.8 8.33-5.4-.1-.5-.6-1-1.1-1.1Zm-43.04-4.2c1.7-3 4.82-2.5 3.01.6l-.4.7c-1.4 2.4-3.41 2.4-4.51 2l1.9-3.3ZM216.4 81.4c-.6 1.1-1.6 1-1.6.1 0-.8.7-1.7 3-2.6l-1.4 2.5Zm1.4-6.7c-.7 0-1-.5-.3-1.6l4.22-7.3c1.6-2.8 4.82-2.1 3.31.6l-2.3 4c-1.81 2.9-3.72 4.3-4.92 4.3Zm18.47-4.5h-.1a1.8 1.8 0 0 0-1.5 2.8v.1c-1.41 2.4-4.82 2-3.12-1.2l2.31-3.9 1.4-2.4c2.11-3.6 5.02-2.2 3.22.9l-2.21 3.7Zm18.86 11.2c-.6 1.1-1.6 1-1.6.1 0-.8.7-1.7 3-2.6l-1.4 2.5Zm1.4-6.7c-.7 0-1-.5-.3-1.6l4.22-7.3c1.6-2.8 4.81-2.1 3.3.6l-2.3 4c-1.8 2.9-3.71 4.3-4.91 4.3Zm29.6-4.5h-.1a1.8 1.8 0 0 0-1.5 2.8v.1c-1.4 2.4-4.82 2-3.11-1.2l2.3-3.9 1.4-2.4c2.11-3.6 5.02-2.2 3.22.9l-2.2 3.7ZM130.53 66.8h-29v2h29v-2ZM358.27 66.8h-29v2h29v-2Z" fill="#766458"/><path d="M163.53 0h7.73l-1.2 44.9H155.5l-2.01-18.5-2 18.5h-14.66L135.75 0h7.63l.6 37.2h.8L149.7 0h7.62l4.92 37.2h.8l.5-37.2ZM195.44 37.2V45h-20.97V0h20.97v7.7h-13.35v10.8h10.64v7.7h-10.64v10.9h13.35v.1ZM216.9 37.2V45h-18.35V0h7.62v37.2h10.74ZM233.16 28.4l7.72-1.8v13.6c0 2.6-2.2 4.7-4.71 4.7h-11.54c-2.6 0-4.71-2.2-4.71-4.7V4.7c0-2.6 2.1-4.7 4.71-4.7h11.54c2.5 0 4.71 2.1 4.71 4.7v9.1l-7.72 1.8v-8h-5.52v29.5h5.52v-8.7ZM261.75 0c2.51 0 4.72 2.1 4.72 4.7v35.4c0 2.6-2.21 4.7-4.72 4.7h-11.54c-2.6 0-4.71-2.2-4.71-4.7V4.7c0-2.6 2.1-4.7 4.71-4.7h11.54Zm-3 7.7h-5.53v29.5h5.52V7.7ZM291.55 0h7.62v44.9h-7.62V22.8l-3.11 11.4h-7.53l-3-11.4v22.1h-7.63V0h7.62l6.83 21.7L291.55 0ZM323.95 37.2V45H303V0h20.96v7.7h-13.34v10.8h10.63v7.7h-10.63v10.9h13.34v.1Z" fill="#81B3D3"/><path d="M44.44 157.6c-3.6-3-8.12-5-12.94-5-3.6 0-8.32 2.1-8.32 6.3 0 4.4 5.31 6.1 8.62 7.1l5.02 1.5c10.43 3.1 18.56 8.3 18.56 20.4 0 7.4-1.8 15.1-7.72 20.1-5.92 5-13.75 7-21.27 7-9.43 0-18.77-3.2-26.39-8.5L8.13 191c4.91 4.3 10.63 7.7 17.35 7.7 4.62 0 9.43-2.3 9.43-7.5 0-5.5-7.62-7.3-11.83-8.5C10.84 179.1 2.8 176 2.8 161.5c0-15.2 10.83-25.1 25.88-25.1 7.53 0 16.86 2.4 23.48 6.2l-7.73 15ZM91.9 154.8v12.5h21.97v16.5H91.9v12.9h23.27v16.5H72.44v-74.8h42.73v16.5l-23.27-.1ZM129.62 138.4h27.7c20.86 0 38.12 16.4 38.12 37.4s-17.36 37.4-38.13 37.4h-27.69v-74.8Zm19.56 58.3h4.42c11.64 0 21.57-6.4 21.57-20.9 0-13.4-8.83-20.9-21.37-20.9h-4.62v41.8ZM287.64 174.4c0 24.2-17.46 41.3-41.54 41.3s-41.53-17.1-41.53-41.3c0-22.6 19.96-38.5 41.53-38.5s41.54 15.9 41.54 38.5Zm-62.8.1c0 12.9 9.52 22.3 21.16 22.3s21.17-9.4 21.17-22.3c0-10.3-9.53-19.8-21.17-19.8-11.54 0-21.17 9.5-21.17 19.8ZM297.97 138.4h19.56l35.72 45.8h.2v-45.8h19.56v74.8h-19.56l-35.72-45.9h-.2v45.9h-19.56v-74.8ZM408.43 200.2l-5.22 13h-20.66l28.89-74.8h21.27L461 213.2h-20.77l-4.91-13h-26.9Zm13.64-38.7h-.2l-8.02 23.8h16.25l-8.03-23.8ZM108.25 287.7c7.73-2.6 8.23-12.2.7-12.2-2.1 0-4.61 1.5-6.32 4.4L92.4 297.6c-.5.8-.9 1.5-1.5 2.2-2.61-3.6-1.91-9 1.8-11.4l-1.5-1.9c-8.03 5.1-5.62 19.7 7.72 19.7 11.34 0 16.66-13.6 9.33-18.5Zm-9.43 15.6c-2.3 0-4.01-.5-5.52-1.3.7-.8 1.3-1.7 1.91-2.7l6.42-11.1 1 .1c8.93 1.9 5.42 15-3.8 15Zm4.12-17.3 3.1-5.3c2.81-4.8 6.33-2 4.42 1.6-1.5 2.8-3.61 3.6-7.52 3.7Z" fill="#fff"/><path d="M140.46 300c-.6 2.2.6 4.1 3.1 4.1 1.51 0 3.42-1 5.32-2.5.2 1.5 1.4 2.5 3.31 2.5 2.01 0 4.22-1.4 6.43-3.4-.4 2 .5 3.4 2.4 3.4 2.11 0 4.42-1.9 6.22-3.6-.4 2 .8 3.6 3.22 3.6 3.1 0 6.72-3.4 9.93-7 0-.1-.1-.1-.1-.2 2.1-2.4 3.9-5 5.31-6.8-1.5 3.9-.7 11-4.31 11-1.3 0-1.8-1.4-1.8-1.4l-2.41 1.2s.7 3.1 4.21 3.1c.4 0 .7 0 1.1-.1h.1c2.81-.4 5.52-2.1 7.93-4.2.1 2.5 2 4.3 5.12 4.3 4.31 0 8.62-3.4 11.74-7-.3-.5-.9-1.1-1.41-1.3l-.3.3c-2.71 3.2-6.22 5.7-8.93 5.7-2.3 0-3.71-1.5-2-4.5l.4-.7c2.4 1 7.02.5 9.93-4.4l.5-.9c2-3.5.1-6.1-3.01-6.1s-5.52 1.6-7.12 4.4l-3.72 6.3h-.1l-.3.3a24.7 24.7 0 0 1-4.61 4.1c1.2-3.6.9-9.2 3.3-14l-2.8-1.5c-1.6 2.2-5.02 7.1-8.43 11.1l.1.1-.1.2c-2.7 3.2-5.42 5.7-7.12 5.7-.8 0-1.3-.6-.4-2.1l8.12-14.2h-3.8l-6.73 11.8c-2.91 2.6-5.12 4.1-5.82 3.8-.9-.4 0-1.8.5-2.6l7.43-12.9h-3.82l-6.02 10.4c-.1-.1-.2-.1-.3-.2l-.3.3c-2.7 3.2-5.42 5.7-7.12 5.7-.8 0-1.3-.6-.4-2.1l6.12-10.7h-2.21c.1-1.6-1.5-3.8-4.01-3.8-2 0-4.92 1.6-6.52 4.4l-3.82 6.6c-.2-.2-.4-.3-.6-.4l-.3.3c-2.7 3.2-6.22 5.7-8.93 5.7-2.3 0-3.71-1.5-2-4.5l3.9-6.8c2.22-3.8 6.13-3.1 3.82.8l-.5.9h3.1l.51-.9c2-3.5.1-6.1-3-6.1-3.12 0-5.53 1.6-7.13 4.4l-3.82 6.5c-.1-.1-.2-.1-.3-.2l-.3.3c-2.7 3.2-6.22 5.7-8.93 5.7-2.3 0-3.7-1.5-2-4.5l.4-.7c2.4 1 7.02.5 9.93-4.4l.5-.9c2-3.5.1-6.1-3-6.1-3.12 0-5.53 1.6-7.13 4.4l-4.01 6.8c-2.41 4-.3 7.8 4.21 7.8 3.31 0 6.72-2 9.43-4.6-.1 2.6 1.9 4.6 5.12 4.6 3.2-.2 6.32-2 9.03-4.3Zm58.19-9.6c2.2-3.8 6.12-3.1 3.8.8l-.5.9c-1.8 3.1-4.3 3-5.71 2.5l2.4-4.2Zm-54.38 9.3 5.32-9.2c2-3.5 6.12-2.6 4.21.8l-3 5.2c-2.32 3.6-4.62 5.3-6.13 5.3-.8-.1-1.3-.6-.4-2.1Zm-24.28-9.3c2.2-3.8 6.12-3.1 3.81.8l-.5.9c-1.8 3.1-4.31 3-5.72 2.5l2.41-4.2ZM249.01 304.1c4.31 0 8.63-3.4 11.74-7-.3-.5-.9-1.1-1.4-1.3l-.3.3c-2.72 3.2-6.23 5.7-8.94 5.7-2.3 0-3.7-1.5-2-4.5l.4-.7c2.4 1 7.02.5 9.93-4.4l.5-.9c2-3.5.1-6.1-3-6.1-3.12 0-5.53 1.6-7.13 4.4l-3.71 6.3s-.1 0-.1-.1l-.3.3c-2.71 3.2-5.42 5.7-7.13 5.7-.8 0-1.3-.6-.4-2.1l5.52-9.6c1.6-2.9.1-5-2-5-1.61 0-3.42.9-5.32 2.9l6.12-10.5h-3.92L226.84 296c-.1-.1-.3-.2-.4-.3l-.3.3c-2.71 3.2-5.42 5.7-7.13 5.7-.8 0-1.3-.6-.4-2.1l8.13-14.2h3.1l1.11-1.8h-3.1l3.6-6.2h-3.8l-3.62 6.2h-3.41l-1.1 1.8h3.5l-7.62 13.2c-1.6 2.8-.5 5.4 2.6 5.4 1.92 0 3.92-1.2 6.03-3l-1.5 2.6h3.8l5.82-10c5.82-7.3 8.43-6.4 6.83-3.6l-4.92 8.6c-1.6 2.8-.5 5.4 2.61 5.4 2.3 0 4.92-1.8 7.32-4.2 0 2.5 1.91 4.3 5.02 4.3Zm3.11-13.7c2.2-3.8 6.12-3.1 3.81.8l-.5.9c-1.8 3.1-4.31 3-5.72 2.5l2.41-4.2ZM364.39 295.8l-.3.3c-2.71 3.2-5.42 5.7-7.13 5.7-.8 0-1.3-.6-.4-2.1l12.84-22.2h-3.81l-5.62 9.6c-.7-1.1-1.9-2-3.51-2-2 0-4.92 1.6-6.52 4.4l-3.71 6.4c-.1 0-.2-.1-.2-.1l-.3.3c-2.71 3.2-5.42 5.7-7.13 5.7-.8 0-1.3-.6-.4-2.1l5.52-9.6c1.6-2.9.1-5-2-5-1.61 0-3.42.9-5.33 2.8l1.4-2.5H334l-6.12 10.5c-.1-.1-.2-.2-.4-.2l-.3.3c-2.71 3.2-5.42 5.7-7.13 5.7-.8 0-1.3-.6-.4-2.1l6.12-10.7h-1.9c.1-1.6-1.51-3.8-4.02-3.8-2 0-4.91 1.6-6.52 4.4l-3.71 6.3-.2.2c-2.71 3.2-5.42 5.7-7.13 5.7-.8 0-1.3-.6-.4-2.1l3.81-6.6c1.3-2.3.7-3.6-.5-5.1l-2.1-2.6c-.5-.7-.5-1.5.2-2.2l-2.01-2.2c-2.2 1.9-2.3 4.1-1 5.8l.3.4c-1.7 2.4-3.91 5.6-6.42 8.5l.3.3c-3.11 3.6-5.82 5.9-8.83 7.2l4.81-8.2h-3.7l-.4.7c-2.01 3.5-4.32 6.1-7.33 6.1-2.61 0-3.11-2.6-.8-6.5l1.1-1.9c.7.1 1.4.2 2.2.2 13.55 0 20.07-18.1 8.13-18.1-2.1 0-4.61 1.5-6.32 4.4L277.4 290a6.22 6.22 0 0 1-3.4-5.4c0-1.8.8-3.5 2.4-4.8l-1.2-2.2c-2.71 1.9-3.92 4.5-3.92 7.1 0 3 1.7 5.9 4.82 7.5l-1.1 2c-2.71 4.6-2.21 9.7 3.2 9.7 1.61 0 3.01-.5 4.12-1.2l-1 1.7c-5.12 1.6-8.33 3.6-8.33 6.5 0 3.6 5.62 4.4 8.32-.3l2.92-5c3.9-1.2 7.82-3.9 12.03-8.8-.1-.1-.1-.2-.2-.4 1.7-2 3.11-3.9 6.02-7.8l.5.6c.5.6.7 1.4.2 2.2l-4 7c-1.61 2.8-.5 5.4 2.6 5.4 1.9 0 4.01-1.2 6.02-3 0 1.7 1.1 3 3.31 3 1.5 0 3.41-1 5.32-2.5.2 1.5 1.4 2.5 3.3 2.5 1.81 0 3.82-1.1 5.73-2.8l-1.4 2.4h3.8l5.83-10.1c5.81-7.3 8.42-6.3 6.72-3.5l-4.92 8.6c-1.6 2.8-.5 5.4 2.6 5.4 2.01 0 4.22-1.4 6.43-3.3-.2 1.9 1 3.3 3.31 3.3 1.5 0 3.41-1 5.32-2.5.2 1.5 1.4 2.5 3.3 2.5 3.12 0 6.73-3.4 9.94-7-.4-.2-1.1-.8-1.6-1Zm-78.16-14.2c1.1-1.9 2.4-2.8 3.41-2.8 6.02 0 1.8 12.3-8.12 12.3h-.8l5.51-9.5Zm-8.13 28.6c-.8 1.4-2.1 1.2-2.1.2s.9-2.1 3.81-3.2l-1.7 3Zm39.83-13.8c-2.3 3.6-4.61 5.3-6.12 5.3-.8 0-1.3-.6-.4-2.1l5.32-9.2c2-3.5 6.12-2.6 4.21.8l-3 5.2Zm36.82-.2c-2.3 3.8-4.61 5.5-6.22 5.5-.8 0-1.3-.6-.4-2.1l5.32-9.2c2-3.5 6.12-2.6 4.21.8l-2.9 5ZM237.27 331.8l-.3.3c-2.7 3.2-5.42 5.7-7.12 5.7-.8 0-1.3-.6-.4-2.1l5.52-9.6c1.6-2.9.1-5-2.01-5-1.6 0-3.41.9-5.32 2.8l1.4-2.5h-3.8L219.1 332c-.2-.1-.3-.2-.5-.3l-.3.3a7.82 7.82 0 0 1-5.72 2.8l3.61-6.2c2.31-4 .2-7.7-3.4-7.7-2.92 0-5.22 1.2-7.43 5l-1.9 3.2-1.61 2.8c-.1-.1-.2-.1-.3-.2l-.3.3c-3.11 3.6-5.82 5.9-8.83 7.2l10.43-17.8h-3.81l-6.72 11.7c-2.91 2.7-5.22 4.2-5.92 3.9-.9-.4 0-1.8.5-2.6l7.42-12.9h-3.81L184.4 332c-.1-.1-.2-.1-.3-.2l-.3.3c-2.71 3.2-5.42 5.7-7.13 5.7-.8 0-1.3-.6-.4-2.1l5.52-9.6c1.6-2.9.1-5-2-5-1.61 0-3.42.9-5.32 2.8l1.4-2.5h-3.81l-6.12 10.5c-.1-.1-.2-.2-.4-.2l-.3.3c-2.71 3.2-5.42 5.7-7.13 5.7-.8 0-1.3-.6-.4-2.1l6.12-10.7h-2.2c.1-1.6-1.5-3.8-4.02-3.8-2 0-4.91 1.6-6.52 4.4l-3.91 6.8c-.3-.2-.6-.4-.8-.5l-.3.3c-2.71 3.2-6.13 5.7-9.84 5.7-2.6 0-4.21-2.6-1.9-6.5l1.1-1.9c.7.1 1.4.2 2.2.2 4.02 0 8.64-2.1 11.65-7.3 1.1-1.9 1.5-3.6 1.5-5.1 0-3.4-2.2-5.7-5.02-5.7-2.1 0-4.61 1.5-6.32 4.4l-5.91 10.2a6.22 6.22 0 0 1-3.42-5.4c0-1.8.8-3.5 2.41-4.8l-1.2-2.2c-2.71 1.9-3.92 4.5-3.92 7.1 0 3 1.71 5.9 4.82 7.5l-1.1 2c-2.71 4.6-1.1 9.7 4.31 9.7 4.21 0 7.43-1.9 10.03-4.4-.8 2.4.4 4.4 3.11 4.4 1.5 0 3.41-1 5.32-2.5.2 1.5 1.4 2.5 3.31 2.5 1.8 0 3.81-1.1 5.72-2.8l-1.4 2.4h3.8l5.83-10.1c5.82-7.3 8.42-6.3 6.72-3.5l-4.92 8.6c-1.6 2.8-.5 5.4 2.61 5.4 2 0 4.31-1.4 6.52-3.4-.5 2.1.5 3.4 2.41 3.4 1.8 0 3.91-1.5 5.62-3.1l-2.1 3.6c-5.13 1.5-8.44 3.6-8.44 6.5 0 3.6 5.62 4.4 8.33-.3l2.91-5c3.21-1 6.32-3 9.63-6.2-.5 5.3 6.52 6.5 10.84 1.1h.8c1.4 0 3.31-.5 5.02-1.5l-2.51 4.4h3.81l5.82-10.1c5.82-7.3 8.43-6.3 6.72-3.5l-4.91 8.6c-1.61 2.8-.5 5.4 2.6 5.4 3.11 0 6.73-3.4 9.94-7-.1-.3-.8-.9-1.3-1.1Zm-94.7-14.2c1.1-1.9 2.4-2.8 3.4-2.8 1.41 0 2.11.9 2.11 2.3 0 3.5-4.31 9.9-10.23 9.9h-.8l5.51-9.4ZM156 332.4c-2.31 3.6-4.62 5.3-6.12 5.3-.8 0-1.3-.6-.4-2.1l5.31-9.2c2.01-3.5 6.12-2.6 4.22.8l-3.01 5.2Zm28.9 13.8c-.81 1.4-2.12 1.2-2.12.2s.9-2.1 3.82-3.2l-1.7 3Zm25.68-14.2h-.2c-1.2 0-2.21 1-2.21 2.3 0 .5.1.9.4 1.3v.1c-1.8 3.1-6.12 2.5-3.91-1.5l2.9-5 1.81-3.1c2.71-4.5 6.32-2.7 4.01 1.2l-2.8 4.7ZM325.46 333.1c-.2-.6-.9-1.2-1.4-1.3l-.3.3c-1.41 1.6-3.12 3.1-4.62 4.1 1.2-3.6.9-9.2 3.3-14l-2.8-1.5c-1.6 2.2-5.02 7.1-8.43 11.1l-.3.3c-2.7 3.2-5.42 5.7-7.12 5.7-.8 0-1.6-.8-1.6-2.6v-1.6c2.7.3 5.51-1.4 7.32-4.5l1-1.8c3.51-6.1-2.2-8.1-6.12-4.5l5.42-9.4H306l-10.84 18.8c-.2-.2-.5-.4-.7-.5l-.3.3c-2.71 3.2-6.22 5.7-8.93 5.7-2.3 0-3.71-1.5-2-4.5l3.9-6.8c2.21-3.8 6.12-3.1 3.82.8l-.5.9h3.1l.5-.9c2.01-3.5.1-6.1-3-6.1-3.11 0-5.52 1.6-7.13 4.4l-3.7 6.4c-.1 0-.2-.1-.2-.1l-.31.3c-2.7 3.2-5.42 5.7-7.12 5.7-.8 0-1.3-.6-.4-2.1l8.12-14.2h-3.81l-6.72 11.8c-2.91 2.6-5.12 4.1-5.82 3.8-.9-.4 0-1.8.5-2.6l7.43-12.9h-3.82l-7.42 12.7c-.8.7-1.7 1.4-2.41 2 1.2-3.6.9-9.2 3.31-14l-2.8-1.5c-1.61 2.2-10.34 13.8-13.85 17.8.3.5.9.9 1.4 1.3 2.2-2.5 9.43-11.8 10.74-13.6-1.5 3.9-.7 11-4.32 11-1.3 0-1.8-1.4-1.8-1.4l-2.41 1.2s.7 3.1 4.21 3.1c.4 0 .7 0 1.1-.1h.1c1.91-.3 3.82-1.1 5.63-2.4 0 1.5.9 2.5 2.5 2.5 2.11 0 4.42-1.9 6.22-3.6-.4 2 .8 3.6 3.21 3.6s5.02-1.9 7.53-4.4c0 2.5 2 4.4 5.12 4.4 3.1 0 6.12-1.7 8.82-4l-2.1 3.7h3.8l4.32-7.5v3c0 3.2.6 4.9 3.71 4.9 3.12 0 6.73-3.4 9.94-7 2.2-2.5 4.01-5.1 5.42-6.9-1.51 3.9-.7 11-4.32 11-1.3 0-1.8-1.4-1.8-1.4l-2.41 1.2s.7 3.1 4.21 3.1c.4 0 .7 0 1.1-.1h.1c3.82-.7 7.73-3.8 10.54-7.1Zm-25.28-3 1.1-1.9c4.42-6.1 7.43-4.4 6.02-2.1l-1.8 3.1c-1.1 2-4.42 3.4-5.32.9ZM325.36 335.7c-1.2 0-2.2 1-2.2 2.2 0 1.2.9 2.2 2.2 2.2 1.2 0 2.2-.9 2.2-2.2 0-1.2-1-2.2-2.2-2.2ZM325.56 334.2h3.81l11.94-20.7h-3.81l-11.94 20.7ZM80.46 277.6c0 .3-.1.6-.2.9-.1.3-.3.6-.5.8-.2.2-.5.4-.8.6-.3.1-.7.2-1.1.2-.5 0-.91-.1-1.31-.3-.4-.2-.8-.4-1.1-.7-.3-.3-.4-.6-.6-1-.1-.4-.2-.8-.2-1.3 0-.9.2-1.6.5-2.4.3-.7.7-1.4 1.3-1.9.2-.2.5-.5.8-.7.3-.2.6-.4.9-.5.3-.1.5-.3.7-.4.2-.1.3-.1.4-.2l1.41 2c-.2.1-.5.2-.8.4-.3.1-.6.3-.9.5-.3.2-.5.5-.7.8-.2.3-.3.6-.3 1 .7 0 1.2.2 1.7.6.6.3.8.9.8 1.6Zm7.93 0c0 .3-.1.6-.2.9-.1.3-.3.6-.5.8-.2.2-.5.4-.8.6-.3.1-.71.2-1.11.2-.5 0-.9-.1-1.3-.3-.4-.2-.8-.4-1.1-.7-.2-.3-.41-.6-.61-1-.1-.4-.2-.8-.2-1.3 0-.9.2-1.6.5-2.4.3-.7.7-1.4 1.3-1.9.2-.2.5-.5.8-.7.3-.2.6-.4.91-.5.3-.1.5-.3.7-.4.2-.1.3-.1.4-.2l1.4 2c-.2.1-.5.2-.8.4-.3.1-.6.3-.9.5-.3.2-.5.5-.7.8-.2.3-.3.6-.3 1 .7 0 1.2.2 1.7.6.5.3.8.9.8 1.6ZM354.35 336.5c0-.3.1-.6.2-.9.1-.3.3-.6.5-.8.2-.2.5-.4.8-.6.3-.1.71-.2 1.11-.2.5 0 .9.1 1.3.3.4.2.8.4 1.1.7.31.3.41.6.61 1 .1.4.2.8.2 1.3 0 .9-.2 1.6-.5 2.4-.3.7-.7 1.4-1.3 1.9-.2.2-.5.5-.8.7-.3.2-.6.4-.91.5-.3.1-.5.3-.7.4-.2.1-.3.1-.4.2l-1.4-2c.2-.1.5-.2.8-.4.3-.1.6-.3.9-.5.3-.2.5-.5.7-.8.2-.3.3-.6.3-1-.7 0-1.2-.2-1.7-.6-.5-.3-.8-.9-.8-1.6Zm-7.82 0c0-.3.1-.6.2-.9.1-.3.3-.6.5-.8.2-.2.5-.4.8-.6.3-.1.7-.2 1.1-.2.5 0 .9.1 1.31.3.4.2.8.4 1.1.7.2.3.4.6.6 1 .1.4.2.8.2 1.3 0 .9-.2 1.6-.5 2.4-.3.7-.7 1.4-1.3 1.9-.2.2-.5.5-.8.7-.3.2-.6.4-.9.5-.3.1-.5.3-.7.4-.2.1-.3.1-.4.2l-1.41-2c.3-.1.5-.2.8-.4.3-.1.6-.3.9-.5.3-.2.5-.5.7-.8.2-.3.3-.6.3-1-.7 0-1.2-.2-1.7-.6-.6-.3-.8-.9-.8-1.6Z" fill="#fff"/></svg>